<svg width="33" height="33" viewBox="0 0 33 33" fill="none" xmlns="http://www.w3.org/2000/svg">
<g id="fluent-mdl2:add-to">
<path id="Vector" d="M17.5312 15.4688H22.6875V17.5312H17.5312V22.6875H15.4688V17.5312H10.3125V15.4688H15.4688V10.3125H17.5312V15.4688ZM16.5 2.0625C17.832 2.0625 19.1104 2.23437 20.335 2.57812C21.5596 2.92188 22.709 3.40527 23.7832 4.02832C24.8574 4.65137 25.8296 5.40332 26.6997 6.28418C27.5698 7.16504 28.3218 8.13721 28.9556 9.20068C29.5894 10.2642 30.0781 11.4136 30.4219 12.6489C30.7656 13.8843 30.9375 15.168 30.9375 16.5C30.9375 17.832 30.7656 19.1104 30.4219 20.335C30.0781 21.5596 29.5947 22.709 28.9717 23.7832C28.3486 24.8574 27.5967 25.8296 26.7158 26.6997C25.835 27.5698 24.8628 28.3218 23.7993 28.9556C22.7358 29.5894 21.5864 30.0781 20.3511 30.4219C19.1157 30.7656 17.832 30.9375 16.5 30.9375C15.168 30.9375 13.8896 30.7656 12.665 30.4219C11.4404 30.0781 10.291 29.5947 9.2168 28.9717C8.14258 28.3486 7.17041 27.5967 6.30029 26.7158C5.43018 25.835 4.67822 24.8628 4.04443 23.7993C3.41064 22.7358 2.92188 21.5864 2.57812 20.3511C2.23437 19.1157 2.0625 17.832 2.0625 16.5C2.0625 15.168 2.23437 13.8896 2.57812 12.665C2.92188 11.4404 3.40527 10.291 4.02832 9.2168C4.65137 8.14258 5.40332 7.17041 6.28418 6.30029C7.16504 5.43018 8.13721 4.67822 9.20068 4.04443C10.2642 3.41064 11.4136 2.92188 12.6489 2.57812C13.8843 2.23437 15.168 2.0625 16.5 2.0625ZM16.5 28.875C17.6387 28.875 18.7344 28.73 19.7871 28.4399C20.8398 28.1499 21.8228 27.731 22.7358 27.1831C23.6489 26.6353 24.4868 25.9907 25.2495 25.2495C26.0122 24.5083 26.6567 23.6758 27.1831 22.752C27.7095 21.8281 28.123 20.8398 28.4238 19.7871C28.7246 18.7344 28.875 17.6387 28.875 16.5C28.875 15.3613 28.73 14.2656 28.4399 13.2129C28.1499 12.1602 27.731 11.1772 27.1831 10.2642C26.6353 9.35107 25.9907 8.51318 25.2495 7.75049C24.5083 6.98779 23.6758 6.34326 22.752 5.81689C21.8281 5.29053 20.8398 4.87695 19.7871 4.57617C18.7344 4.27539 17.6387 4.125 16.5 4.125C15.3613 4.125 14.2656 4.27002 13.2129 4.56006C12.1602 4.8501 11.1772 5.26904 10.2642 5.81689C9.35107 6.36475 8.51318 7.00928 7.75049 7.75049C6.98779 8.4917 6.34326 9.32422 5.81689 10.248C5.29053 11.1719 4.87695 12.1602 4.57617 13.2129C4.27539 14.2656 4.125 15.3613 4.125 16.5C4.125 17.6387 4.27002 18.7344 4.56006 19.7871C4.8501 20.8398 5.26904 21.8228 5.81689 22.7358C6.36475 23.6489 7.00928 24.4868 7.75049 25.2495C8.4917 26.0122 9.32422 26.6567 10.248 27.1831C11.1719 27.7095 12.1602 28.123 13.2129 28.4238C14.2656 28.7246 15.3613 28.875 16.5 28.875Z" fill="black"/>
</g>
</svg>
